# xmcd
#
# Track frame offsets:
#	150
#	13487
#	27885
#	39405
#	51957
#	63600
#	75427
#	88827
#	102820
#	115930
#	128575
#	140762
#	155235
#	168375
#	181602
#	193882
#	206927
#	218760
#
# Disc length: 3095
#
# Revision: 3
# Processed by: cddbd v1.5.1PL0 Copyright (c) Steve Scherf et al.
# Submitted via: ExactAudioCopy v0.90b4
# Normalized: r2:DSETVAR1
#
DISCID=050c1512
DTITLE=Various Artist - Grinder Man Blues
DYEAR=1990
DGENRE=Blues
TTITLE0=Little Brother Montgomery - Vicksburg Blues No.2
TTITLE1=Little Brother Montgomery - Mama, You Don't Mean Me No Good
TTITLE2=Little Brother Montgomery - Santa Fe Blues
TTITLE3=Little Brother Montgomery - Chinese Man Blues
TTITLE4=Little Brother Montgomery - Farish Street Jive
TTITLE5=Little Brother Montgomery - Shreveport Farewell
TTITLE6=Memphis Slim - Beer Drinking Woman
TTITLE7=Memphis Slim - Grinder Man Blues
TTITLE8=Memphis Slim - You Got To Help Me Some
TTITLE9=Memphis Slim - Me, Myself And I
TTITLE10=Memphis Slim - Whiskey And Gin Blues
TTITLE11=Memphis Slim - Lend Me Your Love
TTITLE12=Big Maceo Merriweather - Worried Life Blues
TTITLE13=Big Maceo Merriweather - County Jail Blues
TTITLE14=Big Maceo Merriweather - So Long Baby
TTITLE15=Big Maceo Merriweather - Texas Stomp
TTITLE16=Big Maceo Merriweather - Kid Man Blues
TTITLE17=Big Maceo Merriweather - Chicago Breakdown
EXTD=
EXTT0=
EXTT1=
EXTT2=
EXTT3=
EXTT4=
EXTT5=
EXTT6=
EXTT7=
EXTT8=
EXTT9=
EXTT10=
EXTT11=
EXTT12=
EXTT13=
EXTT14=
EXTT15=
EXTT16=
EXTT17=
PLAYORDER=
